<svg xmlns="http://www.w3.org/2000/svg" viewBox="0 0 317.184 319.269" fill="currentColor">
  <title>obvia</title>

  <path d="M135.216,108.586c12.077-3.009,21.747.69,21.747.69-16.013-5.095-47.828,8.596-37.443,25.548,11.796,19.252,36.033-9.754,41.473-13.034,4.018-2.423,8.231-3.551,12.189-3.93,9.73-.931,17.926,2.658,17.926,2.658-13.829-13.887-26.947-21.011-38.841-23.573-9.644-2.077-18.483-1.154-26.239,1.597-4.65,1.649-8.621,3.607-13.518,6.617-22.781,13.999-37.975,39.15-37.975,67.85,0,43.95,35.628,79.578,79.579,79.578s79.578-35.628,79.578-79.578c0-41.866-32.33-76.18-73.386-79.34,8.294,3.04,17.068,7.615,25.174,14.482,22.379,9.983,37.977,32.426,37.977,58.513,0,35.368-28.671,64.039-64.039,64.039s-64.039-28.67-64.039-64.039c0-18.58,7.913-35.311,20.552-47.009,5.677-5.253,11.504-9.129,19.286-11.068" fill-rule="evenodd"/>
  <path d="M291.578,132.679c3.985,24.647-5.031,43.353-5.031,43.353,12.873-31.15-9.151-97.045-44.777-79.133-40.464,20.344,13.445,73.664,19.088,85.086,4.169,8.439,5.716,17.049,5.809,25.026.227,19.604-8.323,35.384-8.323,35.384,30.08-25.309,46.524-50.335,53.64-73.678,5.773-18.929,5.41-36.75,1.215-52.716-2.514-9.57-5.762-17.837-10.955-28.131C278.087,39.982,230.365,5.389,172.998.569,85.149-6.811,7.95,58.422.569,146.271c-7.381,87.85,57.853,165.049,145.702,172.429,83.684,7.03,157.702-51.831,170.912-133.364-7.469,16.069-18.089,32.838-33.176,47.886-23.711,43.055-71.192,70.465-123.335,66.085-70.695-5.939-123.19-68.063-117.25-138.758,5.939-70.695,68.063-123.189,138.758-117.25,37.137,3.12,69.253,21.746,90.513,48.973,9.548,12.23,16.317,24.527,18.885,40.407" fill-rule="evenodd" />
</svg>
