<?xml version="1.0" encoding="UTF-8"?>
<svg xmlns="http://www.w3.org/2000/svg" viewBox="0 0 529.697 158.555" fill="currentColor">
  <title>obvia wordmark</title>
  <g>
    <path d="M58.438,42.754c10.812,0,20.66,2.632,29.541,7.896,8.879,5.264,15.915,12.265,21.108,21.001,5.191,8.738,7.788,18.406,7.788,29.004,0,10.527-2.597,20.179-7.788,28.95-5.193,8.773-12.229,15.791-21.108,21.055-8.881,5.264-18.729,7.896-29.541,7.896s-20.662-2.632-29.541-7.896c-8.881-5.264-15.917-12.281-21.108-21.055-5.193-8.771-7.788-18.423-7.788-28.95,0-10.598,2.595-20.266,7.788-29.004,5.191-8.736,12.228-15.737,21.108-21.001,8.879-5.264,18.727-7.896,29.541-7.896ZM58.438,66.064c-6.16,0-11.8,1.522-16.919,4.565-5.121,3.045-9.238,7.197-12.354,12.461s-4.673,11.118-4.673,17.563,1.558,12.283,4.673,17.51c3.115,5.229,7.232,9.364,12.354,12.407,5.119,3.045,10.759,4.565,16.919,4.565s11.816-1.521,16.973-4.565c5.156-3.043,9.292-7.179,12.407-12.407,3.115-5.227,4.673-11.064,4.673-17.51s-1.558-12.3-4.673-17.563-7.251-9.416-12.407-12.461c-5.156-3.043-10.814-4.565-16.973-4.565Z" />
    <path d="M188.203,158.555c-10.887,0-20.751-2.632-29.595-7.896-8.846-5.264-15.863-12.281-21.055-21.055-5.193-8.771-7.788-18.423-7.788-28.95V0h24.385v53.066c2.076-1.789,6.408-3.956,12.998-6.499,6.588-2.541,13.605-3.813,21.055-3.813,10.812,0,20.66,2.632,29.541,7.896,8.879,5.264,15.915,12.265,21.108,21.001,5.191,8.738,7.788,18.406,7.788,29.004,0,10.527-2.597,20.179-7.788,28.95-5.193,8.773-12.229,15.791-21.108,21.055-8.881,5.264-18.729,7.896-29.541,7.896ZM188.203,135.137c6.158,0,11.798-1.521,16.919-4.565,5.119-3.043,9.238-7.179,12.354-12.407,3.115-5.227,4.673-11.064,4.673-17.51s-1.558-12.3-4.673-17.563-7.234-9.416-12.354-12.461c-5.121-3.043-10.761-4.565-16.919-4.565-6.23,0-11.907,1.522-17.026,4.565-5.121,3.045-9.238,7.197-12.354,12.461s-4.673,11.118-4.673,17.563,1.558,12.283,4.673,17.51c3.115,5.229,7.232,9.364,12.354,12.407,5.119,3.045,10.796,4.565,17.026,4.565Z" />
    <path d="M272.637,42.539l30.615,80.029,30.615-80.029h25.996l-44.473,116.016h-24.277l-44.473-116.016h25.996Z" />
    <path d="M385.967.215c3.508,0,6.408,1.165,8.701,3.491,2.291,2.328,3.438,5.032,3.438,8.11s-1.146,5.784-3.438,8.11c-2.293,2.328-5.193,3.491-8.701,3.491-3.438,0-6.321-1.163-8.647-3.491-2.328-2.326-3.491-5.03-3.491-8.11s1.163-5.782,3.491-8.11,5.21-3.491,8.647-3.491ZM373.828,42.646h24.385v115.908h-24.385V42.646Z" />
    <path d="M529.697,158.555h-24.385v-10.42c-2.078,1.791-6.429,3.975-13.052,6.553-6.625,2.578-13.626,3.867-21.001,3.867-10.887,0-20.751-2.632-29.595-7.896-8.846-5.264-15.882-12.281-21.108-21.055-5.229-8.771-7.842-18.423-7.842-28.95,0-10.598,2.613-20.266,7.842-29.004,5.227-8.736,12.263-15.737,21.108-21.001,8.844-5.264,18.708-7.896,29.595-7.896,10.742,0,20.518,2.597,29.326,7.788,8.809,5.193,15.791,12.085,20.947,20.679s7.877,18.154,8.164,28.682v58.652ZM471.26,66.064c-6.23,0-11.907,1.522-17.026,4.565-5.121,3.045-9.238,7.197-12.354,12.461s-4.673,11.118-4.673,17.563,1.558,12.283,4.673,17.51c3.115,5.229,7.232,9.364,12.354,12.407,5.119,3.045,10.796,4.565,17.026,4.565,6.158,0,11.798-1.521,16.919-4.565,5.119-3.043,9.238-7.179,12.354-12.407,3.115-5.227,4.673-11.064,4.673-17.51s-1.558-12.3-4.673-17.563-7.234-9.416-12.354-12.461c-5.121-3.043-10.761-4.565-16.919-4.565Z" />
  </g>
</svg>
